<?xml version="1.0" encoding="UTF-8" standalone="no"?>
<svg width="12px" height="22px" viewBox="0 0 12 22" version="1.1" xmlns="http://www.w3.org/2000/svg" xmlns:xlink="http://www.w3.org/1999/xlink" xmlns:sketch="http://www.bohemiancoding.com/sketch/ns">
    <!-- Generator: Sketch 3.4 (15588) - http://www.bohemiancoding.com/sketch -->
    <title>Cocktail Shaker</title>
    <desc>Created with Sketch.</desc>
    <defs></defs>
    <g id="Page-1" stroke="none" stroke-width="1" fill="none" fill-rule="evenodd" sketch:type="MSPage">
        <g id="SLCBOG-Logo-Original" sketch:type="MSArtboardGroup" transform="translate(-10.000000, -5.000000)" fill="#FFFFFF">
            <g id="Cocktail-Shaker" sketch:type="MSLayerGroup" transform="translate(10.000000, 5.000000)">
                <path d="M1,7 C1,7 11,7 11,7 C11,16 9.61274379,21.5063739 9.61274379,21.5063739 C9.55047712,21.7789961 9.26709747,22 8.99657726,22 L3.00342274,22 C2.72539004,22 2.45009232,21.7885933 2.38725621,21.5063739 C2.38725621,21.5063739 1,16 1,7 Z" id="Body" sketch:type="MSShapeGroup"></path>
                <path d="M0.5,5 C2,4 1.99755859,4 3,2.5 C3,2.5 9,2.5 9,2.5 C10,4 10,4 11.5,5 L11,6.5 L1,6.5 L0.5,5 Z" id="Lid" sketch:type="MSShapeGroup"></path>
                <path d="M4,1 C4,0.5 4.5,9.2148511e-15 5.00372314,8.77076189e-15 C5,9.2148511e-15 7,-2.22044605e-16 6.99645996,8.77076189e-15 C7.5,-6.66133815e-16 8,0.5 8,1 L8,2 L4,2 L4,1 Z" id="Cap" sketch:type="MSShapeGroup"></path>
            </g>
        </g>
    </g>
</svg>