<?xml version="1.0" encoding="UTF-8" standalone="no"?>
<svg width="32px" height="32px" viewBox="0 0 32 32" version="1.1" xmlns="http://www.w3.org/2000/svg" xmlns:xlink="http://www.w3.org/1999/xlink" xmlns:sketch="http://www.bohemiancoding.com/sketch/ns">
    <!-- Generator: Sketch 3.4 (15588) - http://www.bohemiancoding.com/sketch -->
    <title>SLCBOG Logo Original</title>
    <desc>Created with Sketch.</desc>
    <defs></defs>
    <g id="Page-1" stroke="none" stroke-width="1" fill="none" fill-rule="evenodd" sketch:type="MSPage">
        <g id="SLCBOG-Logo-Original" sketch:type="MSArtboardGroup" fill="#FFFFFF">
            <g id="Cocktail-Shaker" sketch:type="MSLayerGroup" transform="translate(10.000000, 5.000000)">
                <path d="M1,7 C1,7 11,7 11,7 C11,16 9.61274379,21.5063739 9.61274379,21.5063739 C9.55047712,21.7789961 9.26709747,22 8.99657726,22 L3.00342274,22 C2.72539004,22 2.45009232,21.7885933 2.38725621,21.5063739 C2.38725621,21.5063739 1,16 1,7 Z" id="Body" sketch:type="MSShapeGroup"></path>
                <path d="M0.5,5 C2,4 1.99755859,4 3,2.5 C3,2.5 9,2.5 9,2.5 C10,4 10,4 11.5,5 L11,6.5 L1,6.5 L0.5,5 Z" id="Lid" sketch:type="MSShapeGroup"></path>
                <rect id="Cap" sketch:type="MSShapeGroup" x="4" y="0" width="4" height="2"></rect>
            </g>
        </g>
    </g>
</svg>